Coordinates
version=1
nRows=8
nColumns=63
inDegrees=yes

Units are S.I. units (second, meters, Newtons, ...)
If the header above contains a line with 'inDegrees', this indicates whether rotational values are in degrees (yes) or radians (no).

endheader
time	pelvis_tilt	pelvis_list	pelvis_rotation	pelvis_tx	pelvis_ty	pelvis_tz	hip_flexion_r	hip_adduction_r	hip_rotation_r	knee_angle_r	knee_angle_r_beta	ankle_angle_r	subtalar_angle_r	mtp_angle_r	hip_flexion_l	hip_adduction_l	hip_rotation_l	knee_angle_l	knee_angle_l_beta	ankle_angle_l	subtalar_angle_l	mtp_angle_l	L5_S1_Flex_Ext	L5_S1_Lat_Bending	L5_S1_axial_rotation	L4_L5_Flex_Ext	L4_L5_Lat_Bending	L4_L5_axial_rotation	L3_L4_Flex_Ext	L3_L4_Lat_Bending	L3_L4_axial_rotation	L2_L3_Flex_Ext	L2_L3_Lat_Bending	L2_L3_axial_rotation	L1_L2_Flex_Ext	L1_L2_Lat_Bending	L1_L2_axial_rotation	L1_T12_Flex_Ext	L1_T12_Lat_Bending	L1_T12_axial_rotation	Abs_r3	Abs_r2	Abs_r1	Abs_t1	Abs_t2	neck_flexion	neck_bending	neck_rotation	arm_flex_r	arm_add_r	arm_rot_r	elbow_flex_r	pro_sup_r	wrist_flex_r	wrist_dev_r	arm_flex_l	arm_add_l	arm_rot_l	elbow_flex_l	pro_sup_l	wrist_flex_l	wrist_dev_l
      2.75000000	      5.75972270	     -3.81087240	     89.95225355	      0.30093331	      1.05153092	      0.38235513	     -1.74149895	     -0.43734653	    -12.01466021	      8.06842912	      0.14082065	     29.15158475	     17.22356870	      0.00000000	      0.02905048	      0.43873905	     -7.65311768	     11.39383022	      0.19885985	     27.21645946	      4.98844159	      0.00000000	      0.01368132	      0.02292975	      0.95878639	      0.02540758	      0.03049657	      1.01871054	      0.02247704	      0.05575140	      1.01871054	      0.01563638	      0.05575140	      0.83893809	      0.01270447	      0.04675835	      0.77901394	      0.00781751	      0.03551818	      0.71908980	      0.09772431	      0.25938593	      5.33248229	      0.00000000	      0.00000000	     21.56240621	     -5.05032487	     -8.89471263	      5.82241561	    -11.54183591	     45.05494772	     55.55052438	     28.44374669	      6.05541764	     21.45315306	     13.88170627	     -9.76383641	     63.01234596	     54.60787799	     72.36440172	     -5.70778828	      3.77233584
      2.76666667	      5.75891281	     -3.83200866	     89.58445928	      0.30171639	      1.05169579	      0.38228457	     -1.68045442	     -0.43300240	    -11.62179284	      8.07415217	      0.14092054	     29.12641314	     17.20573963	      0.00000000	     -0.09042724	      0.38198056	     -8.66139049	     11.23407706	      0.19607163	     27.29265279	      5.99989674	      0.00000000	      0.00627395	      0.02534309	      1.04807891	      0.01165135	      0.03370630	      1.11358384	      0.01030747	      0.06161918	      1.11358384	      0.00717050	      0.06161918	      0.91706905	      0.00582599	      0.05167962	      0.85156412	      0.00358493	      0.03925644	      0.78605918	      0.04481419	      0.28668605	      5.82910049	      0.00000000	      0.00000000	     21.67998547	     -5.15763111	     -8.72182192	      5.63799863	    -11.59354545	     45.00779358	     55.61329337	     28.73680411	      6.16203507	     20.15632164	     13.99079213	     -9.63780444	     63.47852520	     54.40250928	     69.55326119	     -5.64945803	      3.45587278
      2.78333333	      5.79725669	     -3.88946530	     89.74253456	      0.30179954	      1.05169026	      0.38211297	     -1.72287085	     -0.32770975	    -11.39463219	      7.89745820	      0.13783665	     28.95770132	     16.77867488	      0.00000000	     -0.08073410	      0.38448167	     -7.97183377	     11.15373161	      0.19466934	     27.14456842	      5.43003083	      0.00000000	      0.00351950	      0.02903931	      1.03019627	      0.00653606	      0.03862228	      1.09458353	      0.00578218	      0.07060618	      1.09458353	      0.00402243	      0.07060618	      0.90142173	      0.00326820	      0.05921696	      0.83703447	      0.00201104	      0.04498189	      0.77264720	      0.02513941	      0.32849850	      5.72964258	      0.00000000	      0.00000000	     21.92259025	     -5.21954079	     -8.56726147	      5.44769855	    -11.67929800	     45.10472852	     55.74583634	     28.90382317	      6.08364622	     19.17741670	     14.02825561	     -9.59515592	     63.71558200	     54.33819309	     68.58144779	     -5.47264253	      3.43547295
      2.80000000	      5.82607976	     -3.96291941	     89.75188473	      0.30191561	      1.05160397	      0.38194952	     -1.65259520	     -0.29645439	    -11.50726223	      7.91454096	      0.13813480	     28.98735255	     16.92007723	      0.00000000	     -0.06236595	      0.40135106	     -7.66083404	     11.11595799	      0.19401007	     27.01471139	      5.03809056	      0.00000000	      0.00696407	      0.03470219	      1.04512893	      0.01293297	      0.04615391	      1.11044949	      0.01144126	      0.08437490	      1.11044949	      0.00795923	      0.08437490	      0.91448781	      0.00646683	      0.07076470	      0.84916726	      0.00397927	      0.05375369	      0.78384670	      0.04974362	      0.39255809	      5.81269357	      0.00000000	      0.00000000	     22.09678991	     -5.31303231	     -8.44242535	      5.24649488	    -11.82618330	     45.26864140	     55.82678481	     29.30532313	      6.04835298	     18.25515613	     14.11283084	     -9.57754378	     64.09693326	     54.34658923	     67.60584513	     -5.20585068	      3.43823272
      2.81666667	      5.85141958	     -4.01425541	     90.05066965	      0.30157657	      1.05161720	      0.38198533	     -1.60711440	     -0.27785534	    -12.00216725	      7.96938308	      0.13909197	     29.03334107	     17.17517506	      0.00000000	     -0.01322905	      0.45026164	     -6.60159335	     11.12303344	      0.19413356	     26.65705009	      4.10997653	      0.00000000	      0.01114032	      0.03694076	      0.99275222	      0.02068869	      0.04913121	      1.05479923	      0.01830243	      0.08981777	      1.05479923	      0.01273227	      0.08981777	      0.86865819	      0.01034490	      0.07532960	      0.80661118	      0.00636558	      0.05722124	      0.74456417	      0.07957420	      0.41788130	      5.52139002	      0.00000000	      0.00000000	     21.96850296	     -5.48179721	     -8.51403878	      5.24403670	    -12.12014954	     46.43856346	     56.50787162	     21.01179156	      2.96901973	     18.69969031	     13.83054381	     -9.42902734	     63.04341106	     54.22724044	     71.73919430	     -4.13845877	      3.66496206
      2.83333333	      5.92325593	     -4.00941442	     90.11396159	      0.30173147	      1.05165721	      0.38198686	     -1.63243244	     -0.18091146	    -12.05069779	      7.93921388	      0.13856542	     29.00780492	     17.17835088	      0.00000000	     -0.01134163	      0.26344485	     -7.61391172	     11.28036706	      0.19687955	     26.77746701	      5.58285758	      0.00000000	      0.01206753	      0.04382643	      0.98512741	      0.02241060	      0.05828915	      1.04669788	      0.01982574	      0.10655958	      1.04669788	      0.01379198	      0.10655958	      0.86198649	      0.01120590	      0.08937085	      0.80041602	      0.00689538	      0.06788714	      0.73884556	      0.08619713	      0.49577333	      5.47898314	      0.00000000	      0.00000000	     21.90962816	     -5.48073141	     -8.44724949	      5.14587124	    -12.25676732	     46.78481721	     56.70559645	     19.04263923	      2.29039885	     18.58344470	     13.88455516	     -9.42621301	     63.23056667	     54.31555067	     71.90197748	     -4.51621770	      3.48330591
      2.85000000	      5.98645926	     -3.87839531	     90.05557849	      0.30181070	      1.05188517	      0.38204338	     -1.80975341	     -0.09526802	    -11.76116046	      7.83580301	      0.13676056	     28.91168190	     16.96576883	      0.00000000	     -0.22458737	      0.23061431	     -7.47513754	     11.21258518	      0.19569653	     26.56538366	      5.30374602	      0.00000000	     -0.00299886	      0.05044008	      1.00129726	     -0.00556919	      0.06708530	      1.06387834	     -0.00492683	      0.12264001	      1.06387834	     -0.00342740	      0.12264001	      0.87613510	     -0.00278474	      0.10285741	      0.81355402	     -0.00171355	      0.07813168	      0.75097294	     -0.02142057	      0.57058825	      5.56891496	      0.00000000	      0.00000000	     21.77066119	     -5.40277036	     -8.46668583	      5.03462800	    -12.36413990	     46.79559558	     56.74226870	     19.85292368	      2.51603173	     18.14663099	     14.00115843	     -9.33036332	     63.48410999	     54.29973264	     70.60785941	     -4.95327146	      3.26246922
      2.86666667	      6.03705461	     -3.80580756	     90.06807792	      0.30189628	      1.05204843	      0.38201240	     -1.87337992	     -0.05093879	    -12.01667693	      7.88595156	      0.13763582	     28.89644683	     17.24885572	      0.00000000	     -0.32791736	      0.17906914	     -7.55276425	     11.21455441	      0.19573090	     26.47366299	      5.27901985	      0.00000000	     -0.00190316	      0.05373043	      1.00633960	     -0.00353436	      0.07146147	      1.06923582	     -0.00312670	      0.13064016	      1.06923582	     -0.00217512	      0.13064016	      0.88054715	     -0.00176727	      0.10956708	      0.81765092	     -0.00108746	      0.08322843	      0.75475470	     -0.01359407	      0.60780931	      5.59695894	      0.00000000	      0.00000000	     21.53758382	     -5.36418729	     -8.52906974	      4.92763848	    -12.38499106	     46.67470659	     56.73094425	     19.76376087	      2.70903970	     18.41313636	     14.03127733	     -9.23101158	     63.65565519	     54.28724997	     69.62039356	     -5.81893880	      2.89876390
